<svg width="132" height="48" viewBox="0 0 132 48" fill="none" xmlns="http://www.w3.org/2000/svg">
<path d="M30.6262 22.924V15.688H36.8182C38.1142 15.688 39.0862 15.976 39.7342 16.552C40.3822 17.104 40.7062 18.004 40.7062 19.252C40.7062 20.548 40.3822 21.484 39.7342 22.06C39.0862 22.636 38.1142 22.924 36.8182 22.924H30.6262ZM24.9742 11.296V37H30.6262V26.956H36.2782C37.6942 26.956 38.7142 27.268 39.3382 27.892C39.9622 28.516 40.3702 29.5 40.5622 30.844C40.7062 31.876 40.8142 32.956 40.8862 34.084C40.9582 35.212 41.1502 36.184 41.4622 37H47.1142C46.8502 36.64 46.6462 36.208 46.5022 35.704C46.3822 35.176 46.2862 34.624 46.2142 34.048C46.1662 33.472 46.1302 32.908 46.1062 32.356C46.0822 31.804 46.0582 31.324 46.0342 30.916C45.9862 30.268 45.8902 29.62 45.7462 28.972C45.6262 28.324 45.4222 27.736 45.1342 27.208C44.8462 26.656 44.4742 26.188 44.0182 25.804C43.5622 25.396 42.9862 25.096 42.2902 24.904V24.832C43.7302 24.256 44.7622 23.416 45.3862 22.312C46.0342 21.208 46.3582 19.9 46.3582 18.388C46.3582 17.404 46.1782 16.492 45.8182 15.652C45.4822 14.788 44.9782 14.032 44.3062 13.384C43.6582 12.736 42.8662 12.232 41.9302 11.872C41.0182 11.488 39.9862 11.296 38.8342 11.296H24.9742ZM54.8067 28.468H49.3347C49.3107 30.052 49.5987 31.42 50.1987 32.572C50.7987 33.724 51.6027 34.672 52.6107 35.416C53.6427 36.16 54.8187 36.7 56.1387 37.036C57.4827 37.396 58.8627 37.576 60.2787 37.576C62.0307 37.576 63.5667 37.372 64.8867 36.964C66.2307 36.556 67.3467 35.992 68.2347 35.272C69.1467 34.528 69.8307 33.652 70.2867 32.644C70.7427 31.636 70.9707 30.544 70.9707 29.368C70.9707 27.928 70.6587 26.752 70.0347 25.84C69.4347 24.904 68.7147 24.16 67.8747 23.608C67.0347 23.056 66.1827 22.66 65.3187 22.42C64.4787 22.156 63.8187 21.976 63.3387 21.88C61.7307 21.472 60.4227 21.136 59.4147 20.872C58.4307 20.608 57.6507 20.344 57.0747 20.08C56.5227 19.816 56.1507 19.528 55.9587 19.216C55.7667 18.904 55.6707 18.496 55.6707 17.992C55.6707 17.44 55.7907 16.984 56.0307 16.624C56.2707 16.264 56.5707 15.964 56.9307 15.724C57.3147 15.484 57.7347 15.316 58.1907 15.22C58.6467 15.124 59.1027 15.076 59.5587 15.076C60.2547 15.076 60.8907 15.136 61.4667 15.256C62.0667 15.376 62.5947 15.58 63.0507 15.868C63.5067 16.156 63.8667 16.552 64.1307 17.056C64.4187 17.56 64.5867 18.196 64.6347 18.964H70.1067C70.1067 17.476 69.8187 16.216 69.2427 15.184C68.6907 14.128 67.9347 13.264 66.9747 12.592C66.0147 11.92 64.9107 11.44 63.6627 11.152C62.4387 10.84 61.1547 10.684 59.8107 10.684C58.6587 10.684 57.5067 10.84 56.3547 11.152C55.2027 11.464 54.1707 11.944 53.2587 12.592C52.3467 13.24 51.6027 14.056 51.0267 15.04C50.4747 16 50.1987 17.14 50.1987 18.46C50.1987 19.636 50.4147 20.644 50.8467 21.484C51.3027 22.3 51.8907 22.984 52.6107 23.536C53.3307 24.088 54.1467 24.544 55.0587 24.904C55.9707 25.24 56.9067 25.528 57.8667 25.768C58.8027 26.032 59.7267 26.272 60.6387 26.488C61.5507 26.704 62.3667 26.956 63.0867 27.244C63.8067 27.532 64.3827 27.892 64.8147 28.324C65.2707 28.756 65.4987 29.32 65.4987 30.016C65.4987 30.664 65.3307 31.204 64.9947 31.636C64.6587 32.044 64.2387 32.368 63.7347 32.608C63.2307 32.848 62.6907 33.016 62.1147 33.112C61.5387 33.184 60.9987 33.22 60.4947 33.22C59.7507 33.22 59.0307 33.136 58.3347 32.968C57.6387 32.776 57.0267 32.5 56.4987 32.14C55.9947 31.756 55.5867 31.264 55.2747 30.664C54.9627 30.064 54.8067 29.332 54.8067 28.468ZM74.3336 11.296V37H79.6256V18.964H79.6976L85.9976 37H90.3536L96.6536 18.784H96.7256V37H102.018V11.296H94.0616L88.3736 28.972H88.3016L82.2896 11.296H74.3336Z" fill="#00195A"/>
</svg>
